<svg id="svg" version="1.1" xmlns="http://www.w3.org/2000/svg" xmlns:xlink="http://www.w3.org/1999/xlink" width="400" height="375.17241379310343" viewBox="0, 0, 400,375.17241379310343"><g id="svgg"><path id="path0" d="M119.137 107.839 C 116.708 108.431,116.160 108.760,115.017 110.309 L 114.071 111.590 114.062 169.397 C 114.050 239.393,114.270 236.259,109.004 241.524 C 104.390 246.138,93.230 246.364,86.271 241.984 C 81.622 239.058,80.029 241.240,79.653 251.048 C 79.307 260.076,80.461 265.825,82.841 266.941 C 83.611 267.302,84.831 267.996,85.553 268.483 C 86.342 269.015,88.142 269.608,90.056 269.966 C 91.811 270.294,94.139 270.896,95.230 271.304 C 97.864 272.288,109.552 272.381,113.133 271.445 C 114.371 271.122,117.087 270.483,119.167 270.024 C 121.697 269.467,123.242 268.918,123.834 268.367 C 124.321 267.913,124.899 267.532,125.118 267.520 C 125.639 267.491,128.175 266.132,130.247 264.771 C 132.206 263.484,137.336 258.264,137.336 257.557 C 137.336 257.285,137.818 256.507,138.407 255.829 C 138.996 255.151,139.843 253.612,140.289 252.408 C 140.735 251.205,141.362 249.714,141.682 249.096 C 142.002 248.477,142.583 246.085,142.973 243.779 C 143.364 241.474,143.978 238.236,144.338 236.585 C 144.944 233.812,145.003 228.945,145.123 172.654 L 145.251 111.724 144.268 110.305 C 142.544 107.818,139.933 107.307,129.156 107.349 C 124.136 107.369,120.294 107.556,119.137 107.839 M246.210 107.902 C 243.089 108.472,241.819 109.156,241.165 110.620 C 240.817 111.400,240.722 128.953,240.753 187.092 L 240.792 262.552 241.683 264.336 C 242.173 265.317,243.039 266.482,243.607 266.925 C 244.175 267.367,245.185 268.152,245.851 268.668 L 247.062 269.606 285.808 269.710 C 329.930 269.828,326.679 270.058,327.685 266.745 C 330.414 257.751,329.300 245.841,325.623 244.719 C 324.890 244.495,314.384 244.245,299.690 244.102 C 284.312 243.951,274.674 243.717,274.154 243.479 C 272.118 242.552,272.248 246.663,272.045 176.735 L 271.857 112.008 270.638 110.264 C 269.430 108.538,269.385 108.515,266.135 107.918 C 262.046 107.168,250.284 107.158,246.210 107.902 " stroke="none" fill="#fafbfc" fill-rule="evenodd"></path><path id="path1" d="M120.347 104.710 C 117.595 105.030,113.575 107.022,112.542 108.576 C 112.087 109.261,111.976 118.269,111.795 168.856 L 111.583 228.330 110.643 232.458 C 108.898 240.119,106.315 242.220,98.687 242.183 C 94.043 242.160,93.726 242.091,87.852 239.810 C 82.550 237.751,81.460 237.722,79.553 239.584 C 77.224 241.858,77.111 242.503,77.111 253.471 L 77.111 263.227 78.406 265.580 C 79.119 266.874,80.216 268.262,80.845 268.664 C 81.474 269.066,82.326 269.645,82.739 269.951 C 83.152 270.257,84.418 270.760,85.553 271.068 C 86.689 271.376,88.673 272.067,89.964 272.603 C 94.974 274.683,114.449 274.727,119.194 272.669 C 120.401 272.146,122.330 271.457,123.481 271.139 C 124.633 270.821,126.152 270.172,126.858 269.697 C 127.565 269.223,129.071 268.382,130.206 267.829 C 132.822 266.556,137.501 262.304,138.519 260.275 C 138.947 259.422,139.599 258.386,139.969 257.974 C 141.198 256.601,143.461 252.007,144.313 249.156 C 144.775 247.608,145.403 245.666,145.708 244.841 C 147.498 239.995,147.594 236.651,147.756 173.358 C 147.936 103.124,148.288 108.683,143.504 106.229 C 140.021 104.444,128.904 103.714,120.347 104.710 M247.733 104.714 C 243.140 105.235,240.314 106.795,238.940 109.568 L 237.918 111.632 238.002 187.054 L 238.086 262.477 238.951 264.780 C 240.081 267.791,243.330 270.711,246.072 271.180 C 249.256 271.724,326.513 271.556,327.481 271.002 C 333.354 267.647,333.345 245.672,327.468 242.312 C 326.832 241.947,320.942 241.814,301.853 241.732 L 277.063 241.626 275.687 240.491 L 274.311 239.357 274.210 174.932 C 274.095 101.518,274.472 108.814,270.674 106.632 C 267.228 104.652,256.317 103.740,247.733 104.714 M137.597 105.440 C 140.939 105.874,144.895 107.604,145.838 109.044 C 146.739 110.418,146.930 231.932,146.042 238.086 C 145.098 244.621,141.914 254.219,139.941 256.473 C 139.580 256.886,138.772 258.099,138.146 259.170 C 136.224 262.456,131.776 266.356,128.125 267.956 C 127.103 268.404,125.841 269.069,125.320 269.434 C 124.800 269.799,123.364 270.382,122.131 270.729 C 120.897 271.075,118.621 271.790,117.073 272.316 C 114.370 273.235,113.890 273.275,104.878 273.316 L 95.497 273.358 90.807 271.938 C 78.876 268.326,77.861 266.878,77.861 253.471 C 77.861 239.308,79.720 236.974,87.937 240.819 C 97.475 245.283,108.285 243.172,110.491 236.415 C 112.512 230.228,112.353 235.307,112.564 170.152 C 112.785 101.687,112.344 108.950,116.409 106.898 C 119.733 105.220,130.306 104.492,137.597 105.440 M266.604 106.009 C 267.842 106.337,269.589 107.035,270.484 107.560 C 273.612 109.392,273.335 103.226,273.546 175.797 C 273.649 211.295,273.872 240.617,274.041 240.957 C 274.612 242.109,275.940 242.179,301.126 242.384 C 321.101 242.547,326.447 242.692,327.145 243.090 C 332.015 245.865,332.305 265.704,327.539 270.018 C 326.595 270.872,250.601 271.350,246.635 270.527 C 244.008 269.982,240.818 267.342,239.879 264.938 C 238.842 262.278,238.648 112.884,239.678 110.070 C 241.257 105.760,256.810 103.415,266.604 106.009 " stroke="none" fill="#49bdec" fill-rule="evenodd"></path><path id="path2" d="M0.000 187.617 L 0.000 375.235 200.000 375.235 L 400.000 375.235 400.000 187.617 L 400.000 0.000 200.000 0.000 L 0.000 0.000 0.000 187.617 M143.058 104.783 C 143.832 105.124,144.465 105.560,144.465 105.751 C 144.465 105.943,144.967 106.308,145.579 106.562 C 146.231 106.832,147.126 107.745,147.737 108.765 L 148.780 110.507 148.780 171.857 C 148.780 222.047,148.689 233.515,148.278 234.897 C 148.001 235.826,147.619 237.852,147.430 239.400 C 146.777 244.718,146.400 246.451,145.460 248.458 C 144.942 249.564,144.403 251.106,144.261 251.885 C 144.119 252.664,143.608 253.846,143.125 254.512 C 142.642 255.178,142.008 256.229,141.715 256.848 C 141.423 257.467,140.656 258.630,140.010 259.432 C 139.365 260.235,138.837 261.106,138.837 261.369 C 138.837 261.632,138.372 262.242,137.805 262.725 C 137.237 263.207,136.482 264.054,136.126 264.606 C 135.771 265.158,135.095 265.731,134.625 265.879 C 134.156 266.027,133.544 266.472,133.266 266.866 C 132.989 267.260,131.891 267.970,130.827 268.443 C 129.764 268.916,128.236 269.751,127.434 270.299 C 126.631 270.846,125.685 271.295,125.332 271.295 C 124.979 271.295,123.882 271.724,122.895 272.249 C 120.591 273.474,117.134 274.284,114.179 274.291 C 112.896 274.294,110.134 274.491,108.041 274.729 C 101.669 275.454,89.888 274.249,87.430 272.621 C 86.707 272.143,85.447 271.634,84.628 271.491 C 82.023 271.035,78.852 268.577,77.354 265.854 C 76.683 264.632,76.216 247.094,76.741 242.819 C 77.297 238.300,82.160 235.680,85.627 238.033 C 86.344 238.519,87.591 239.040,88.400 239.191 C 89.208 239.341,91.135 239.955,92.683 240.556 C 100.386 243.544,108.688 240.229,109.673 233.771 C 109.899 232.287,110.135 207.827,110.276 171.295 L 110.507 111.257 111.487 109.166 C 112.209 107.628,112.779 106.947,113.645 106.588 C 114.292 106.320,114.822 105.958,114.822 105.784 C 114.822 105.253,116.354 104.608,118.360 104.294 C 122.108 103.708,141.486 104.091,143.058 104.783 M268.705 104.513 C 269.241 104.647,270.148 105.159,270.721 105.651 C 271.293 106.143,272.080 106.646,272.470 106.770 C 273.256 107.020,274.296 108.774,274.296 109.850 C 274.296 110.232,274.508 110.755,274.765 111.013 C 275.136 111.384,275.256 124.799,275.338 175.009 L 275.441 238.536 276.354 239.393 L 277.266 240.251 300.641 240.417 C 333.524 240.651,332.226 239.983,332.202 256.660 C 332.186 267.900,331.253 270.333,326.319 271.999 C 322.703 273.221,252.130 273.251,246.956 272.033 C 243.210 271.152,242.118 270.673,241.838 269.790 C 241.727 269.442,241.212 268.964,240.693 268.727 C 240.175 268.491,239.411 267.579,238.996 266.700 C 238.581 265.822,237.953 264.597,237.601 263.977 C 236.855 262.667,236.381 116.628,237.107 111.937 C 237.732 107.898,241.108 104.832,245.533 104.283 C 248.172 103.956,267.229 104.145,268.705 104.513 " stroke="none" fill="#04a4ec" fill-rule="evenodd"></path><path id="path3" d="M121.373 105.447 C 119.583 105.636,117.984 106.103,116.409 106.898 C 112.344 108.950,112.785 101.687,112.564 170.152 C 112.353 235.307,112.512 230.228,110.491 236.415 C 108.285 243.172,97.475 245.283,87.937 240.819 C 79.720 236.974,77.861 239.308,77.861 253.471 C 77.861 266.878,78.876 268.326,90.807 271.938 L 95.497 273.358 104.878 273.316 C 113.890 273.275,114.370 273.235,117.073 272.316 C 118.621 271.790,120.897 271.075,122.131 270.729 C 123.364 270.382,124.800 269.799,125.320 269.434 C 125.841 269.069,127.103 268.404,128.125 267.956 C 131.776 266.356,136.224 262.456,138.146 259.170 C 138.772 258.099,139.580 256.886,139.941 256.473 C 141.914 254.219,145.098 244.621,146.042 238.086 C 146.930 231.932,146.739 110.418,145.838 109.044 C 143.698 105.777,133.058 104.212,121.373 105.447 M249.156 105.423 C 243.440 106.158,240.602 107.550,239.678 110.070 C 238.648 112.884,238.842 262.278,239.879 264.938 C 240.818 267.342,244.008 269.982,246.635 270.527 C 250.601 271.350,326.595 270.872,327.539 270.018 C 332.305 265.704,332.015 245.865,327.145 243.090 C 326.447 242.692,321.101 242.547,301.126 242.384 C 275.940 242.179,274.612 242.109,274.041 240.957 C 273.872 240.617,273.649 211.295,273.546 175.797 C 273.335 103.226,273.612 109.392,270.484 107.560 C 267.077 105.564,256.389 104.493,249.156 105.423 M139.287 107.716 C 142.361 108.333,143.206 108.773,144.268 110.305 L 145.251 111.724 145.123 172.654 C 145.003 228.945,144.944 233.812,144.338 236.585 C 143.978 238.236,143.364 241.474,142.973 243.779 C 142.583 246.085,142.002 248.477,141.682 249.096 C 141.362 249.714,140.735 251.205,140.289 252.408 C 139.843 253.612,138.996 255.151,138.407 255.829 C 137.818 256.507,137.336 257.285,137.336 257.557 C 137.336 258.264,132.206 263.484,130.247 264.771 C 128.175 266.132,125.639 267.491,125.118 267.520 C 124.899 267.532,124.321 267.913,123.834 268.367 C 123.242 268.918,121.697 269.467,119.167 270.024 C 117.087 270.483,114.371 271.122,113.133 271.445 C 109.552 272.381,97.864 272.288,95.230 271.304 C 94.139 270.896,91.811 270.294,90.056 269.966 C 88.142 269.608,86.342 269.015,85.553 268.483 C 84.831 267.996,83.611 267.302,82.841 266.941 C 80.461 265.825,79.307 260.076,79.653 251.048 C 80.029 241.240,81.622 239.058,86.271 241.984 C 93.230 246.364,104.390 246.138,109.004 241.524 C 114.270 236.259,114.050 239.393,114.062 169.397 L 114.071 111.590 115.017 110.309 C 116.160 108.760,116.708 108.431,119.137 107.839 C 121.517 107.258,136.550 107.167,139.287 107.716 M266.135 107.918 C 269.385 108.515,269.430 108.538,270.638 110.264 L 271.857 112.008 272.045 176.735 C 272.248 246.663,272.118 242.552,274.154 243.479 C 274.674 243.717,284.312 243.951,299.690 244.102 C 314.384 244.245,324.890 244.495,325.623 244.719 C 329.300 245.841,330.414 257.751,327.685 266.745 C 326.679 270.058,329.930 269.828,285.808 269.710 L 247.062 269.606 245.851 268.668 C 245.185 268.152,244.175 267.367,243.607 266.925 C 243.039 266.482,242.173 265.317,241.683 264.336 L 240.792 262.552 240.753 187.092 C 240.710 106.665,240.628 110.256,242.535 109.006 C 245.023 107.376,259.536 106.707,266.135 107.918 " stroke="none" fill="#98d8f4" fill-rule="evenodd"></path><path id="path4" d="M118.360 104.294 C 116.354 104.608,114.822 105.253,114.822 105.784 C 114.822 105.958,114.292 106.320,113.645 106.588 C 112.779 106.947,112.209 107.628,111.487 109.166 L 110.507 111.257 110.276 171.295 C 110.135 207.827,109.899 232.287,109.673 233.771 C 108.688 240.229,100.386 243.544,92.683 240.556 C 91.135 239.955,89.208 239.341,88.400 239.191 C 87.591 239.040,86.344 238.519,85.627 238.033 C 82.160 235.680,77.297 238.300,76.741 242.819 C 76.216 247.094,76.683 264.632,77.354 265.854 C 78.852 268.577,82.023 271.035,84.628 271.491 C 85.447 271.634,86.707 272.143,87.430 272.621 C 89.888 274.249,101.669 275.454,108.041 274.729 C 110.134 274.491,112.896 274.294,114.179 274.291 C 117.134 274.284,120.591 273.474,122.895 272.249 C 123.882 271.724,124.979 271.295,125.332 271.295 C 125.685 271.295,126.631 270.846,127.434 270.299 C 128.236 269.751,129.764 268.916,130.827 268.443 C 131.891 267.970,132.989 267.260,133.266 266.866 C 133.544 266.472,134.156 266.027,134.625 265.879 C 135.095 265.731,135.771 265.158,136.126 264.606 C 136.482 264.054,137.237 263.207,137.805 262.725 C 138.372 262.242,138.837 261.632,138.837 261.369 C 138.837 261.106,139.365 260.235,140.010 259.432 C 140.656 258.630,141.423 257.467,141.715 256.848 C 142.008 256.229,142.642 255.178,143.125 254.512 C 143.608 253.846,144.119 252.664,144.261 251.885 C 144.403 251.106,144.942 249.564,145.460 248.458 C 146.400 246.451,146.777 244.718,147.430 239.400 C 147.619 237.852,148.001 235.826,148.278 234.897 C 148.689 233.515,148.780 222.047,148.780 171.857 L 148.780 110.507 147.737 108.765 C 147.126 107.745,146.231 106.832,145.579 106.562 C 144.967 106.308,144.465 105.943,144.465 105.751 C 144.465 104.317,125.116 103.237,118.360 104.294 M245.533 104.283 C 241.108 104.832,237.732 107.898,237.107 111.937 C 236.381 116.628,236.855 262.667,237.601 263.977 C 237.953 264.597,238.581 265.822,238.996 266.700 C 239.411 267.579,240.175 268.491,240.693 268.727 C 241.212 268.964,241.727 269.442,241.838 269.790 C 242.118 270.673,243.210 271.152,246.956 272.033 C 252.130 273.251,322.703 273.221,326.319 271.999 C 331.253 270.333,332.186 267.900,332.202 256.660 C 332.226 239.983,333.524 240.651,300.641 240.417 L 277.266 240.251 276.354 239.393 L 275.441 238.536 275.338 175.009 C 275.256 124.799,275.136 111.384,274.765 111.013 C 274.508 110.755,274.296 110.232,274.296 109.850 C 274.296 108.774,273.256 107.020,272.470 106.770 C 272.080 106.646,271.293 106.143,270.721 105.651 C 270.148 105.159,269.241 104.647,268.705 104.513 C 267.229 104.145,248.172 103.956,245.533 104.283 M138.438 104.701 C 141.449 105.091,145.286 106.775,146.416 108.201 C 147.877 110.044,147.914 111.836,147.756 173.358 C 147.594 236.651,147.498 239.995,145.708 244.841 C 145.403 245.666,144.775 247.608,144.313 249.156 C 143.461 252.007,141.198 256.601,139.969 257.974 C 139.599 258.386,138.947 259.422,138.519 260.275 C 137.501 262.304,132.822 266.556,130.206 267.829 C 129.071 268.382,127.565 269.223,126.858 269.697 C 126.152 270.172,124.633 270.821,123.481 271.139 C 122.330 271.457,120.401 272.146,119.194 272.669 C 114.449 274.727,94.974 274.683,89.964 272.603 C 88.673 272.067,86.689 271.376,85.553 271.068 C 84.418 270.760,83.152 270.257,82.739 269.951 C 82.326 269.645,81.474 269.066,80.845 268.664 C 80.216 268.262,79.119 266.874,78.406 265.580 L 77.111 263.227 77.111 253.471 C 77.111 242.503,77.224 241.858,79.553 239.584 C 81.460 237.722,82.550 237.751,87.852 239.810 C 93.726 242.091,94.043 242.160,98.687 242.183 C 106.315 242.220,108.898 240.119,110.643 232.458 L 111.583 228.330 111.795 168.856 C 111.976 118.269,112.087 109.261,112.542 108.576 C 113.575 107.022,117.595 105.030,120.347 104.710 C 124.018 104.283,135.174 104.277,138.438 104.701 M267.023 105.046 C 267.873 105.253,269.516 105.967,270.674 106.632 C 274.472 108.814,274.095 101.518,274.210 174.932 L 274.311 239.357 275.687 240.491 L 277.063 241.626 301.853 241.732 C 320.942 241.814,326.832 241.947,327.468 242.312 C 333.345 245.672,333.354 267.647,327.481 271.002 C 326.513 271.556,249.256 271.724,246.072 271.180 C 243.330 270.711,240.081 267.791,238.951 264.780 L 238.086 262.477 238.002 187.054 L 237.918 111.632 238.940 109.568 C 240.314 106.795,243.140 105.235,247.733 104.714 C 251.481 104.289,264.859 104.519,267.023 105.046 " stroke="none" fill="#3cbcec" fill-rule="evenodd"></path></g></svg>